<?xml version="1.0" encoding="utf-8"?>
<!-- Generator: Adobe Illustrator 26.0.1, SVG Export Plug-In . SVG Version: 6.00 Build 0)  -->
<svg version="1.1" id="Слой_1" xmlns="http://www.w3.org/2000/svg" xmlns:xlink="http://www.w3.org/1999/xlink" x="0px" y="0px"
	 viewBox="0 0 1440 493" style="enable-background:new 0 0 1440 493;" xml:space="preserve">
<style type="text/css">
	.st0{fill:#FDE3CD;}
	.st1{fill:#50BCBD;}
	.st2{fill:#E84258;}
	.st3{fill:#F18D9A;}
	.st4{fill:#EE721C;}
	.st5{fill:#43A235;}
</style>
<polygon class="st0" points="1253.4,0.1 1253.4,0 0.1,0 0.1,357 0,357 0,493 1440,493 1440,0.1 "/>
<path class="st1" d="M1267.6,0.1c-2.4,8.1-3.8,17.4,0.6,21.1c7.1,6,19.2-11,49.3-15.1c17.1-2.3,34,0.3,57.2,4
	c8.3,1.3,14.5,2.6,18.3,3.5c10.4,2.5,18.9,5.3,27.9,8.2c5.1,1.7,12.5,4.4,19,7.3l0-29H1267.6z"/>
<path class="st1" d="M1440,40.4c-3.2,0-6-0.1-8-0.2c-20.7-0.7-29.6-5.3-57.2-10.9c-10.7-2.3-21.6-4-32.5-5.1
	c-10.7-1-21.4-1.2-32.2-0.8c-10.8,1.2-21.2,4.8-30.4,10.6c-27.6,17.6-32.3,48.6-33.6,57c-2.1,13.6-1.3,30.8,3.4,32s7.8-15,24.3-27.1
	c12.7-9.3,26.7-11.2,37.4-12.7c10.1-1.4,17.5-0.8,32.3,0.5c7.4,0.6,16.7,1.8,26.3,7.3c1.8,1,7.2,4.1,6.6,5.9c-0.2,0.5-1,1.8-15,1.1
	c-6.6-0.4-23.9-1-29.5-0.4c-9.4,0.9-16.7,1.9-18.4,2.1c-3.4,0.5-25.1,3.8-39.5,14.7c-26.4,19.9-27.5,64.8-27.5,68
	c-0.1,11.7,2,23.7-5.8,35.7c-4.7,7.4-11.7,12.3-10.3,14.4c1.4,2.1,8.6-2,17.4-2.8c14.3-1.3,23.7,5.6,34.8,10.8
	c3.7,1.8,38.6,16.5,69.7,4.2c15.1-5.9,24.2-16.9,26.8-20c8.3-9.9,13-21,18.4-33.9c4.7-11.2,8-19.7,8-19.7c5.6-14.2,7.5-20.4,10-20.3
	c3.1,0.2,4.7,9.9,4.9,10.7c0.8,4.6,1.2,12.5-6.2,30.8c-4.8,12.1-11.1,23.6-18.8,34.1c-3.6,5.1-7.8,9.9-12.4,14.1
	c-16.5,15-30.6,15.4-30.3,20.3c0.2,5.5,18.6,10.2,33.8,10.3c12.3,0.1,24.4-2.6,35.5-7.8c7.1-3.4,12.8-7.5,17.9-12L1440,40.4z"/>
<path class="st2" d="M1379.3,0.1h-67.1c-4.2,12.8,0.5,29,5.5,38.3c9.7,18.3,27.9,24.5,38.3,28c10.5,3.6,29.7,10.2,39.1,1.2
	c10.6-10.1,1.9-33.2-1.4-42C1391.2,19,1387.4,8.8,1379.3,0.1z"/>
<path class="st2" d="M1396,86.6c-3.9-14.3-28.4-17.8-37.8-19.2c-10.2-1.5-27.6-4.1-44.1,6.7c-11.2,7.3-28.3,25-23.1,43.1
	c5.2,18.1,29.1,23.7,42.2,23.9c20.9,0.3,35-12.9,43.1-20.4C1384.5,113.2,1399.5,99.4,1396,86.6z"/>
<path class="st2" d="M1440,123.2c-1.8-5.4-3.7-9.1-5.5-12.7c-4.8-10-13.6-28.3-26.6-28.6c-14.6-0.3-24.8,22.4-28.7,31
	c-4.2,9.3-11.6,25.5-6.1,44.4c3.8,13.2,16,34.9,34.5,34.8c16.8-0.1,27.7-17.3,32.5-29.9L1440,123.2z"/>
<path class="st2" d="M1440,59.3c-10.2,3.2-21.7,8.4-23.8,18.1c-3,14,15.7,27.9,23.8,33.7L1440,59.3z"/>
<path class="st2" d="M1405.1,0.1c-6.7,12.3-7,25.5-7.2,34.1c-0.3,11-0.8,31.2,10.7,37.4c9.5,5.1,22.3-1.5,31.5-7.9l0-63.7
	L1405.1,0.1z"/>
<path class="st3" d="M1402.2,76.8c3.1-14.5-16.9-29.1-24.6-34.7c-6.8-5-21.5-15.6-42-14.8c-14.7,0.6-41.3,7.5-45.1,25.8
	c-3.9,18.4,17.6,35.7,31.2,42.3c19.6,9.6,38.6,4.6,47.5,2.2C1379.9,95,1399.5,89.8,1402.2,76.8z"/>
<path class="st3" d="M1406.3,80.9c-11.1-9.6-33.5,1.1-42,5.3c-7.6,3.7-23.9,11.5-33,30.1c-6.5,13.2-13.2,40,0.9,52.1
	c14.1,12.1,39.5,1.4,51.8-7.4c17.8-12.8,22.4-31.9,24.7-40.9C1411.4,109.2,1416.2,89.5,1406.3,80.9z"/>
<path class="st3" d="M1440,81.8c-10.2-4.1-22.9-7.7-30.9-1.3c-11.5,9.2-5,33-2.4,42.1c2.2,8.1,7,25.5,23.7,37.8
	c2.7,2,5.8,4.1,9.6,6.1L1440,81.8z"/>
<path class="st3" d="M1440,24.5c-7.3,5.7-12,11.7-15.1,15.6c-6.8,8.7-19.2,24.7-13.7,36.5c4.4,9.4,17.8,11.8,28.8,12.3L1440,24.5z"
	/>
<path class="st3" d="M1358.4,0.1c-0.4,3.1-0.6,5.9-0.6,8.5c-0.1,21.7,12.6,36.6,18.6,43.6c7.2,8.4,20.3,23.8,33.1,20.8
	c14.3-3.3,18.8-27.6,20.4-36.8c1.3-7,3.8-20.9-1.5-36.1H1358.4z"/>
<path class="st4" d="M1409.2,84.3c5.7,0,10.3-4.6,10.3-10.3c0-5.7-4.6-10.3-10.3-10.3c-5.7,0-10.3,4.6-10.3,10.3
	C1398.9,79.7,1403.6,84.3,1409.2,84.3z"/>
<path class="st4" d="M1440,417.3c-9.1-16.5-22.5-34.2-42.1-50.5c-12.7-10.6-25.7-18.7-41.7-23.7c-17.2-5.5-28.9-4.5-34.4-3.7
	c-3.8,0.6-25.1,3.7-26.2,12c-1.1,7.5,16,8.5,31.8,27.7c9,10.9,14.5,23.7,22.1,41.4c2.7,6.3,4.4,11.2,5.5,14.2
	c2.8,8.3,4.6,15.4,6.4,22.9c2.2,9,6,28,2.8,29.2c-2.5,0.9-8.5-9.4-10.9-13.5c-8.4-14.6-9.2-22.8-17.2-44.4
	c-3-8.5-6.6-16.7-10.6-24.8c-4-7.8-8.4-15.4-13.4-22.6c-5.5-7-12.5-12.6-20.5-16.5c-24.2-11.5-47.7-1.3-54.1,1.4
	c-10.3,4.5-22,12.4-20.7,16.2c1.2,3.8,13.8-1.1,29.3,5.1c12,4.8,19.3,13.6,25,20.4c5.4,6.4,8.1,11.8,13.6,22.6
	c2.8,5.4,6,12.4,6.4,21.4c0.1,1.7,0.2,6.8-1.2,7.2c-0.4,0.1-1.7,0.1-7.2-9.9c-2.6-4.8-9.7-17-12.5-20.7c-4.7-6.1-8.5-10.7-9.5-11.9
	c-1.9-2.2-13.5-15.8-27.3-21.1c-25.3-9.7-56.8,9-59.1,10.4c-8.1,5-15.5,11.6-27.3,11.5c-7.2-0.1-13.5-2.8-14.4-0.9
	c-0.9,1.9,5.1,5.1,9.5,10.8c7.1,9.3,6.4,18.9,7.6,28.8c0.3,2.5,3.2,20.7,14.3,36.5l276,0V417.3z"/>
<path class="st5" d="M16.5,242.2c-7-9.3-11-20.1-16.4-34.9v66c9.3,2.3,15.9,2,19.4,1.7c3.2-0.3,20.8-2,22.1-8.8
	C42.8,260.2,28.8,258.6,16.5,242.2z"/>
<path class="st5" d="M170.9,209.8c-5.4-8-4.5-15.8-5.1-24c-0.2-2.7-3-28.1-20.4-42.4c-8.4-6.9-17.9-8.7-20.5-9.2
	c-8.5-1.6-16.6-0.7-26,0.3c-8.1,0.9-14.2,1.8-14.2,1.8c-10.2,1.4-14.5,2.3-15.2,0.8c-0.9-1.9,4.2-6,4.7-6.4
	c2.4-1.9,6.9-4.8,20.2-6.5c8.7-1.2,17.5-1.2,26.2-0.1c4.2,0.5,8.4,1.4,12.4,2.6c14.2,4.8,19.1,12.9,21.9,11.2c3.2-2-0.1-14.3-5-23.3
	c-4-7.3-9.5-13.5-16.3-18.3C118.1,85.4,101.2,85.8,95.8,86c-20.4,0.7-41.2,10.9-50.2,17c-5.6,3.8-8.7,4.8-14.8,6.8
	c-4,1.4-8.3,1.8-12.5,1.1c-2.6-0.5-4.7-0.9-5-2.1c-0.7-2.6,7.8-7.3,17.6-12C55.3,85,67.5,79,81.4,77.5c21.7-2.5,32.1,4.4,34.5-0.1
	c3.5-6.4-15.9-25.7-36.8-35.9C65.4,34.7,53,33,45.7,32c-9.3-1.2-21.6-2.7-37,0.9c-2.2,0.5-5.2,1.2-8.6,2.4v130.5
	c5.4,11.1,5.9,18.1,11.4,35.1c2.2,7.1,4.7,14,7.7,20.8c2.9,6.6,6.3,13,10.1,19.1c4.2,6,9.8,10.9,16.2,14.4c19.4,10.4,39.2,3,44.5,1
	c8.7-3.3,18.6-9.3,17.7-12.5c-0.9-3.2-11.4,0.4-23.9-5.4c-9.7-4.4-15.4-12-19.8-17.8c-4.1-5.5-6.2-10-10.3-19.1
	c-2.1-4.6-4.4-10.4-4.4-17.9c0-1.4,0.1-5.6,1.3-5.9c0.3-0.1,1.4,0,5.5,8.4c2,4,7.3,14.4,9.4,17.5c3.6,5.2,6.6,9.2,7.3,10.1
	c1.4,1.9,10.5,13.5,21.6,18.4c20.4,9,47.1-5.1,49-6.1c6.9-3.7,13.3-8.9,22.9-8.3c5.9,0.4,11,2.8,11.8,1.3
	C179,217.5,174.2,214.7,170.9,209.8z"/>
<path class="st2" d="M120.7,429.5c7.2-7,1.3-22.8-1-28.8c-2.4-6.4-6.6-17.8-18.3-24.3c-7.7-4.2-23.6-9.2-32.8-0.5
	c-9.2,8.7-5.1,25.2-0.7,33.5c6.6,12.6,19,16.8,26.2,19.3C101.2,431.1,114.3,435.7,120.7,429.5z"/>
<path class="st2" d="M121.3,442.2c-2.7-9.7-19.4-12-25.8-12.9c-6.9-1-18.9-2.7-30.1,4.5c-7.6,4.9-19.3,16.9-15.8,29.1
	c3.6,12.2,19.9,16,28.8,16.1c14.2,0.2,23.9-8.7,29.4-13.8C113.5,460.1,123.7,450.8,121.3,442.2z"/>
<path class="st2" d="M151.8,493c0.3-0.8,0.6-1.5,0.8-2.3c4.2-13.7-1.6-25.5-4.9-32.1c-3.3-6.8-9.4-19.2-18.3-19.4
	c-10-0.2-17,15.2-19.7,21.1c-2.9,6.3-8,17.3-4.2,30.1c0.2,0.8,0.6,1.7,0.9,2.7L151.8,493z"/>
<path class="st2" d="M135.2,435.8c-2.1,9.8,11.6,19.7,16.8,23.4c5.7,4.1,15.4,11.2,28.7,10c8.6-0.8,24.4-5.6,27.2-17.9
	c2.8-12.4-9.5-23.7-17.7-28.2c-12.4-6.8-25.1-3.4-32.5-1.5C150.5,423.5,137.1,427.1,135.2,435.8z"/>
<path class="st2" d="M129.6,432.2c8.8,4.8,22.1-5.7,27.2-9.6c5.4-4.3,15-11.6,17.6-24.8c1.6-8.2,1.8-24.7-9.2-31
	c-11-6.3-25.6,2.1-32.5,9c-10,10-10.3,23.1-10.4,30.8C122.1,414.1,121.8,428,129.6,432.2z"/>
<path class="st3" d="M125.7,435.3c2.1-9.8-11.6-19.7-16.8-23.5c-4.7-3.4-14.7-10.6-28.7-10c-10,0.4-28.2,5.1-30.8,17.5
	c-2.6,12.4,12,24.1,21.3,28.6c13.4,6.5,26.4,3.1,32.5,1.5C110.4,447.5,123.8,444,125.7,435.3z"/>
<path class="st3" d="M128.5,438.5c-7.6-6.5-22.8,0.8-28.6,3.6c-5.2,2.5-16.3,7.8-22.5,20.5c-3.7,7.5-7.4,21.2-3.1,30.4l39,0
	c0,0,0,0,0.1,0c12.1-8.7,15.3-21.7,16.8-27.8C131.9,457.8,135.2,444.3,128.5,438.5z"/>
<path class="st3" d="M144.8,492.7c0.2,0.1,0.3,0.2,0.5,0.3l38.6,0c4.2-9.1,0.9-22.6-2.7-30.2c-6.4-13.5-18.6-19-24.3-21.6
	c-6.9-3.1-19.5-8.8-26.5-3.2c-7.8,6.3-3.4,22.6-1.7,28.8C130.2,472.4,133.5,484.3,144.8,492.7z"/>
<path class="st3" d="M131.3,435.7c4.2,9.1,21.1,8.6,27.6,8.4c5.7-0.2,18.1-0.5,28.9-9.5c7.7-6.4,19.3-21.1,13.9-32.6
	c-5.5-11.5-24.2-11.9-34.3-9.8c-14.6,3-22.8,13.6-26.7,18.5C136,416.7,127.5,427.6,131.3,435.7z"/>
<path class="st3" d="M130,433.2c9.8-2.3,12.8-18.9,13.9-25.3c1-5.6,3.2-17.8-3.3-30.2c-4.7-8.9-16.7-23.3-29.1-20.3
	c-12.4,3-16.6,21.2-16.6,31.6c-0.1,14.9,8.6,25.1,12.6,29.9C112.4,424.7,121.3,435.3,130,433.2z"/>
<path class="st4" d="M130.3,440.7c4,0,7.3-3.2,7.3-7.3c0-4-3.2-7.3-7.3-7.3c-4,0-7.3,3.2-7.3,7.3
	C123.1,437.5,126.3,440.7,130.3,440.7z"/>
</svg>
