<?xml version="1.0" encoding="utf-8"?>
<!-- Generator: Adobe Illustrator 28.2.0, SVG Export Plug-In . SVG Version: 6.00 Build 0)  -->
<svg version="1.1" id="Слой_1" xmlns="http://www.w3.org/2000/svg" xmlns:xlink="http://www.w3.org/1999/xlink" x="0px" y="0px"
	 viewBox="0 0 1440 604" style="enable-background:new 0 0 1440 604;" xml:space="preserve">
<style type="text/css">
	.st0{fill:#68C2C3;}
	.st1{fill:#EE721C;}
	.st2{fill:#43A235;}
	.st3{fill:#F39346;}
	.st4{fill:#E84258;}
	.st5{fill:#F18D9A;}
</style>
<polygon class="st0" points="1072.7,603.7 1440,603.7 1440,0 0,0 0,604 1072.7,604 "/>
<path class="st1" d="M1338.3-0.6h-103.6v0.1h-168c13.1,14.3,26,31.1,41.2,50.8c9.8,12.9,16.7,23,20.8,29.3
	c11.2,17.3,19.2,32.6,27.7,48.8c10.1,19.4,29.7,60.8,22.6,65.6c-5.5,3.8-25.6-16.3-33.5-24.3c-28.3-28.4-34.4-46.9-65.5-91.4
	C1068,60.8,1055,44,1041,28c-8.8-9.9-18-19.3-27.6-28.4H805.9C784,16.6,762,41,766.8,48.7c5,8,32.6-11.5,73.6-7.1
	c31.5,3.3,54,19,71.4,31c16.4,11.4,26,22.1,45.1,43.4c9.7,10.7,21.2,24.7,26.9,45.3c1,3.9,4.2,15.4,0.8,17.4
	c-0.9,0.5-4,1.2-22.7-18.2c-8.9-9.3-32.5-33-41.2-39.7c-14.6-11.2-26.4-19.3-29.3-21.3c-5.6-3.7-41.1-27.7-77.2-31
	C748,62.4,681.7,126,677.1,130.6c-17,16.7-31.3,36.8-59.7,44.1c-17.4,4.4-34.2,2.3-35.3,7.2c-1.1,4.9,15,8.4,28.7,18.9
	c22.1,17,25.6,39.5,33.9,61.7c2.7,7.4,31.1,74.9,92.9,98.4c29.9,11.5,58.7,7.5,66.8,6.5c26-3.4,48.7-13.3,75-24.9
	c22.8-10,39.7-17.9,39.7-17.9c28.4-13.3,40.1-19.7,43.4-16.2c4.1,4.3-7.5,20.5-8.6,22c-5.5,7.7-16.2,19.7-53.3,36.5
	c-24.3,11.3-49.7,19.5-75.8,24.5c-12.6,2.6-25.3,4-38,4.1c-44.9,0-65.6-18.1-72.3-10.7c-7.6,8.3,11.8,39.3,33.1,59.7
	c17.3,16.5,38.4,28.6,61.8,35.7c53.5,15.8,102.1-0.7,117.6-6.2c58.7-20.8,110.6-68,131.8-93.3c13.1-15.7,21.2-21.3,37.4-32.5
	c10.5-7.7,22.7-12.7,35.4-14.6c7.8-1,14.2-1.8,16.1,1.1c4.2,6.5-16.9,27.4-41.5,49.6c-61.1,55.2-91.6,82.8-130.8,100
	c-60.9,26.8-96.4,17.3-100,32.1c-5,20.9,66.6,56.5,135.2,65.4c45.4,5.8,82.8-0.8,104.6-4.8c27.9-5.2,64.8-12.3,106.5-36.6
	c17.6-10.2,52.8-31.2,81.5-72.5c13.8-19.1,24.1-40.3,30.3-62.5c17.7-64.9-17.4-83.3,1.3-134c12-32.5,29.3-33,52.5-83.8
	c8.3-18.2,14.7-37.1,19.2-56.3v-7.6C1406.5,120.1,1391.8,61.6,1338.3-0.6z"/>
<path class="st2" d="M1160.7,541.8c16.8-17.6,26.9-37.9,38.7-61.6c10.2-20.5,17.4-36,17.4-36c12.2-26.1,16.5-37.5,21.2-36.9
	c5.8,0.7,7.7,19.1,7.9,20.8c0.8,8.7,0.7,23.5-15.5,57.2c-10.5,22.3-23.7,43-39.5,61.8c-7.5,9.2-15.9,17.6-25.1,25.1
	c-28.7,22.9-52.6,25.1-58.2,31.5h158.8c29.6-20.6,45.7-46.8,51.7-56.8c29.4-49.2,37-113.3,36.2-143.8c-0.6-19,1.8-27.7,6.4-45.2
	c2.7-11.6,8.3-22.3,16.4-31.1c5-5.3,9.2-9.6,12.4-8.6c7.1,2.2,5.2,29.5,1.5,59.8c-9.1,75.2-13.6,112.8-31.1,148
	c-24.6,49.6-53.1,65.6-53.2,77.7h79.2c17.9-5.9,36.7-13.9,54.2-23.7V13.7c-3.9-2.8-12.2-8.1-24.4-14.3h-181v0.1h-158.9
	c-11.3,6-22.3,12.9-33,21c-33.4,24.8-47.3,48.2-53.2,59.5c-4,7.9-26.8,51.9-12.9,65.2c12.5,12.1,37.4-18.5,94.6-22.4
	c32.5-2.3,63.9,4.7,107.2,14.4c15.4,3.5,26.9,6.8,33.9,8.9c19.3,5.9,35,12.2,51.5,18.9c19.7,8,60.5,26.3,58.4,33.9
	c-1.6,5.9-29.1,3.2-40,2.1c-38.7-3.9-55-13.6-106.2-27.4c-19.9-5.7-40.2-10.2-60.6-13.5c-20-3.1-40.2-4.9-60.4-5.4
	c-20.4,1-40.4,6.5-58.4,16.3c-54.1,29.7-66.7,87.4-70.1,103.1c-5.6,25.4-6.3,57.9,2.5,60.7s16.4-27.2,49.1-48
	c25.1-16,51.6-17.9,71.9-19.4c19.2-1.4,33,0.7,60.6,4.8c13.9,2.1,31.3,5.4,48.6,16.9c3.3,2.2,13,8.6,11.8,12
	c-0.3,0.9-2.1,3.2-28.2,0.2c-12.4-1.4-44.7-4.7-55.4-4.4c-17.7,0.5-31.5,1.5-34.9,1.8c-6.5,0.6-47.7,4.2-76.1,22.8
	c-52.1,34.3-59.6,118.5-60,124.5c-1.7,22,0.8,44.7-15.2,66.5c-9.9,13.4-23.5,21.6-21.1,25.8s16.3-2.8,33-3.2
	c27-0.7,43.9,13.4,64.2,24.5c6.6,3.7,70.5,35.6,130.6,16.4C1137,566.9,1155.5,547.3,1160.7,541.8z"/>
<path class="st3" d="M1277.6-0.6c2.3,16.1,3.1,30.7-1.1,32.2c-5.8,2.1-19.2-22-24.5-31.6c-0.1-0.2-0.2-0.4-0.3-0.6h-17v0.1H795.2
	c8.9,23.6,24,51.4,49.3,70.8C868.6,89,895.2,93,902.7,94.2c23.9,3.8,46.4,0.5,72.6-3.3c22.6-3.3,39.5-6.2,39.5-6.2
	c28.4-4.8,40.2-7.8,42.4-3.6c2.7,5.1-11.3,17.2-12.6,18.3c-6.6,5.6-18.9,14-55.8,19.9c-24.2,4.1-48.8,5.1-73.2,2.8
	c-11.8-0.9-23.5-3-34.9-6.3c-40.2-12-54.6-34.3-62.3-29.2c-8.6,5.8,1.7,40,16.2,64.7c11.8,20,27.9,37,47.2,49.8
	c44.2,29,91.5,26.4,106.5,25.4c57.1-3.8,114.1-34.1,138.7-52.2c15.3-11.3,23.8-14.3,40.8-20.5c11.1-4.3,23.1-5.8,34.9-4.2
	c7.2,1.1,13.1,2.1,14.1,5.3c2.3,7.1-21.2,21.1-48.2,35.3c-67,35.4-100.4,53.2-139.3,58.8c-60.5,9-90.1-9.4-96.6,3.5
	c-9.1,18.2,46.8,70.6,106.2,97.1c39.2,17.5,74.1,21.2,94.5,23.3c26.1,2.6,60.7,5.8,103.4-5.9c18-4.9,54.2-15.2,89.1-46.2
	c16.6-14.3,30.5-31.3,41.1-50.5c30.4-56,3.1-82.5,31.2-125c12.9-19.4,24.5-22.8,41.9-38.3V-0.6H1277.6z"/>
<path class="st4" d="M105.1,52.3c-5.3-14.1-12.4-33.2-24-52.6h-82v189.8c34.7,11.4,84.3,24,110.5-1.3
	C143.5,155.3,115.7,80.8,105.1,52.3z"/>
<path class="st4" d="M112.4,247.9C100.8,206,33.2,193.2-0.9,188.2v207.8c21.2-12.9,37.9-28.2,50.2-39.5
	C75.5,332.4,123.6,288.4,112.4,247.9z"/>
<path class="st4" d="M150.6,233.7c-47.1-0.9-80.2,71.5-92.9,99.1C44,362.7,20.2,414.2,37.8,474.6C50.2,517,89.5,586.1,149.5,585.8
	c59.9-0.3,97.9-69.6,110.1-109.3c19.7-64.4-7.6-119.8-22.9-151.3C221.1,293.1,192.7,234.6,150.6,233.7z"/>
<path class="st4" d="M177.9,217.9c-10,46.1,54.6,92.6,79.3,110.3c26.8,19.3,72.6,52.7,135.2,47c40.7-3.7,114.9-26.2,128-84.4
	c13.1-58.2-44.6-111.5-83.4-132.8c-58.4-32-117.9-16-152.8-6.8C249.8,160.2,186.8,176.8,177.9,217.9z"/>
<path class="st4" d="M127.7-0.3c-9.6,30.3-10.3,59.8-10.8,80.8c-0.8,35.5-2.4,100.7,34.5,120.7c41.5,22.4,104.1-26.6,128-45.4
	c25.6-20,70.5-54.8,82.8-116.8c2.1-10.8,3.7-24.5,3.8-39.3H127.7z"/>
<path class="st5" d="M53.8,105.1C42.3,96.8,23.7,83.4-0.9,73v215.7c11-2.1,20.3-4.6,27.6-6.5c34.4-9,97.4-25.5,106.3-66.7
	C143,169.4,78.5,122.9,53.8,105.1z"/>
<path class="st5" d="M146.1,230.7c-35.7-30.8-107.4,3.7-134.8,16.9c-3.5,1.7-7.7,3.7-12.2,6v269.2c29.1-7.7,57.1-22.4,75.7-35.8
	c56.9-40.9,72-102.1,79.1-130.9C162.4,321.4,178,258.2,146.1,230.7z"/>
<path class="st5" d="M155.1,228.5c-36.8,29.5-15.8,106.3-7.8,135.6c7.1,26,22.4,82.2,75.6,121.6c37.9,28.1,118.2,64.9,164.7,27.2
	C434,475.2,415.1,389,394.2,345c-30-63.5-87.4-89.3-114.5-101.5C247.2,228.9,187.8,202.2,155.1,228.5z"/>
<path class="st5" d="M159.4,217.5c20,42.7,99.5,40.5,129.9,39.6c27-0.7,85.2-2.4,136-44.7c36.3-30.2,91-99.5,65.4-153.6
	C465,4.8,376.7,2.9,329,12.7C260.3,26.8,221.6,76.5,203.3,100C181.4,128,141.5,179.4,159.4,217.5z"/>
<path class="st5" d="M221.9-0.3H-0.9v60.3c13.4,36.9,35.8,63.4,48.5,78.6c22.9,27.1,64.9,76.9,105.9,67.2
	c45.9-10.8,60.1-89.1,65.5-119C222.2,68.7,228.1,36.6,221.9-0.3z"/>
<path class="st1" d="M154.9,241.1c18.9,0,34.1-15.3,34.1-34.1c0-18.9-15.3-34.1-34.1-34.1c-18.9,0-34.1,15.3-34.1,34.1
	C120.7,225.8,136,241.1,154.9,241.1z"/>
</svg>
