<svg width="20" height="23" viewBox="0 0 20 23" fill="none" xmlns="http://www.w3.org/2000/svg">
<path d="M18.3867 7.38502C18.2145 7.13987 17.9931 6.94209 17.7398 6.80724C17.4865 6.67239 17.2083 6.60414 16.927 6.60786H6.48698L5.58399 4.80129C5.43829 4.51887 5.22666 4.28459 4.97108 4.12275C4.7155 3.96092 4.42528 3.87743 4.13054 3.88097H2.0215C1.85747 3.88097 1.70015 3.95279 1.58417 4.08064C1.46818 4.20849 1.40302 4.38189 1.40302 4.56269C1.40302 4.74349 1.46818 4.91689 1.58417 5.04474C1.70015 5.17259 1.85747 5.24441 2.0215 5.24441H4.13054C4.20374 5.24096 4.27649 5.25864 4.34158 5.29571C4.40666 5.33278 4.46184 5.38795 4.50164 5.45575L5.52214 7.50091L6.05404 13.8546C6.12533 14.5124 6.42027 15.116 6.87938 15.5436C7.33849 15.9712 7.92763 16.1911 8.52799 16.1588H14.9417C15.4721 16.1736 15.9922 15.9962 16.4223 15.6539C16.8524 15.3115 17.1688 14.8231 17.3229 14.2636L18.665 8.93253C18.7311 8.66851 18.7404 8.39112 18.6921 8.12245C18.6438 7.85378 18.5392 7.60127 18.3867 7.38502ZM17.4837 8.55758L16.1416 13.8955C16.058 14.1687 15.8953 14.404 15.6785 14.5654C15.4617 14.7267 15.2028 14.8051 14.9417 14.7885H8.50325C8.21413 14.8119 7.92746 14.716 7.69887 14.5195C7.47029 14.3229 7.31612 14.0398 7.26627 13.725L6.80241 7.9713H16.927C17.0174 7.9703 17.1069 7.99115 17.1892 8.03237C17.2715 8.0736 17.3445 8.1342 17.4033 8.20991C17.4402 8.25705 17.4667 8.31298 17.4806 8.37332C17.4946 8.43365 17.4956 8.49673 17.4837 8.55758Z" fill="#FFF1E5"/>
<path d="M8.82487 19.5606C9.50803 19.5606 10.0618 18.9502 10.0618 18.1972C10.0618 17.4442 9.50803 16.8337 8.82487 16.8337C8.1417 16.8337 7.58789 17.4442 7.58789 18.1972C7.58789 18.9502 8.1417 19.5606 8.82487 19.5606Z" fill="#FFF1E5"/>
<path d="M15.0097 19.5606C15.6929 19.5606 16.2467 18.9502 16.2467 18.1972C16.2467 17.4442 15.6929 16.8337 15.0097 16.8337C14.3266 16.8337 13.7728 17.4442 13.7728 18.1972C13.7728 18.9502 14.3266 19.5606 15.0097 19.5606Z" fill="#FFF1E5"/>
</svg>
