<svg width="271" height="731" viewBox="0 0 271 731" fill="none" xmlns="http://www.w3.org/2000/svg">
<path d="M121.654 586.936C133.862 575.133 123.859 548.269 120.029 537.999C115.955 527.066 108.89 507.839 88.9533 496.799C75.9294 489.596 48.8744 481.165 33.2564 495.982C17.6384 510.799 24.5432 538.663 32.0356 552.892C43.2589 574.255 64.3014 581.405 76.425 585.593C88.5486 589.782 110.751 597.457 121.654 586.936Z" fill="#E84258"/>
<path d="M122.676 608.467C118.152 592.086 89.7617 588.058 78.9123 586.524C67.1549 584.853 46.9208 581.878 27.8923 594.154C14.9218 602.547 -4.91547 622.773 1.112 643.549C7.13947 664.324 34.7972 670.741 50.0032 670.939C74.1512 671.252 90.4865 656.161 99.9245 647.547C109.362 638.933 126.712 623.078 122.676 608.467Z" fill="#E84258"/>
<path d="M136.448 603.378C119.464 603.065 107.539 629.136 102.984 639.1C98.0629 649.858 89.4643 668.437 95.8122 690.219C100.276 705.479 114.436 730.359 136.036 730.245C157.636 730.13 171.331 705.166 175.711 690.837C182.799 667.635 172.964 647.653 167.463 636.316C161.855 624.764 151.601 603.676 136.448 603.378Z" fill="#E84258"/>
<path d="M146.275 597.679C142.681 614.281 165.952 631.036 174.848 637.437C184.492 644.388 201.01 656.412 223.579 654.367C238.243 653.04 264.97 644.929 269.701 623.963C274.431 602.996 253.625 583.762 239.655 576.094C218.605 564.55 197.157 570.311 184.576 573.63C172.178 576.888 149.487 582.862 146.275 597.679Z" fill="#E84258"/>
<path d="M136.745 591.644C151.692 599.731 174.26 582.046 182.89 575.293C192.106 568.076 208.282 555.54 212.73 533.2C215.514 519.23 215.743 491.283 197.203 480.624C178.526 469.889 153.813 484.172 142.048 495.944C125.118 512.898 124.652 535.085 124.332 548.162C124.004 560.949 123.416 584.441 136.745 591.644Z" fill="#E84258"/>
<path d="M130.108 596.809C133.716 580.207 110.461 563.437 101.565 557.028C93.6757 551.336 76.6537 539.067 52.8491 540.059C35.8577 540.761 5.01095 548.65 0.532314 569.731C-3.94632 590.812 20.8961 610.68 36.7201 618.317C59.4872 629.304 81.4452 623.543 91.7911 620.827C104.197 617.6 126.888 611.649 130.108 596.809Z" fill="#F18D9A"/>
<path d="M134.83 602.272C121.967 591.171 96.1323 603.599 86.2594 608.376C77.4853 612.595 58.5865 621.689 48.1109 643.083C40.6186 658.342 32.8515 689.212 49.1943 703.22C65.5371 717.229 94.8888 704.884 109.156 694.637C129.68 679.881 135.097 657.831 137.661 647.447C140.682 634.957 146.305 612.175 134.83 602.272Z" fill="#F18D9A"/>
<path d="M138.058 601.494C124.813 612.137 132.366 639.795 135.258 650.369C137.821 659.754 143.345 679.996 162.488 694.187C176.153 704.319 205.1 717.572 221.84 703.999C238.579 690.425 231.758 659.357 224.22 643.472C213.424 620.583 192.717 611.29 182.959 606.895C171.27 601.631 149.838 592.002 138.058 601.494Z" fill="#F18D9A"/>
<path d="M139.599 597.518C146.809 612.9 175.458 612.099 186.43 611.794C196.158 611.526 217.124 610.939 235.436 595.695C248.505 584.815 268.243 559.835 258.989 540.349C249.734 520.863 217.941 520.176 200.736 523.716C175.977 528.805 162.022 546.727 155.453 555.166C147.549 565.275 133.159 583.793 139.599 597.518Z" fill="#F18D9A"/>
<path d="M137.478 593.284C154.019 589.393 159.131 561.178 161.092 550.397C162.824 540.814 166.562 520.176 155.415 499.11C147.457 484.08 127.056 459.642 106.097 464.67C85.138 469.698 77.9203 500.682 77.8669 518.246C77.7524 543.531 92.4168 560.873 99.3217 569.044C107.577 578.833 122.729 596.755 137.478 593.284Z" fill="#F18D9A"/>
<path d="M137.989 606.026C144.786 606.026 150.296 600.516 150.296 593.719C150.296 586.922 144.786 581.412 137.989 581.412C131.192 581.412 125.682 586.922 125.682 593.719C125.682 600.516 131.192 606.026 137.989 606.026Z" fill="#EE721C"/>
<path d="M121.654 122.936C133.862 111.133 123.859 84.2687 120.029 73.9991C115.955 63.0658 108.89 43.8389 88.9533 32.7987C75.9294 25.5963 48.8744 17.1654 33.2564 31.9823C17.6384 46.7992 24.5432 74.6628 32.0356 88.8922C43.2589 110.255 64.3014 117.405 76.425 121.593C88.5486 125.782 110.751 133.457 121.654 122.936Z" fill="#E84258"/>
<path d="M122.676 144.467C118.152 128.086 89.7617 124.058 78.9123 122.524C67.1549 120.853 46.9208 117.878 27.8923 130.154C14.9218 138.547 -4.91547 158.773 1.112 179.549C7.13947 200.324 34.7972 206.741 50.0032 206.939C74.1512 207.252 90.4865 192.161 99.9245 183.547C109.362 174.933 126.712 159.078 122.676 144.467Z" fill="#E84258"/>
<path d="M136.448 139.378C119.464 139.065 107.539 165.136 102.984 175.1C98.0629 185.858 89.4643 204.437 95.8122 226.219C100.276 241.479 114.436 266.359 136.036 266.245C157.636 266.13 171.331 241.166 175.711 226.837C182.799 203.635 172.964 183.653 167.463 172.316C161.855 160.764 151.601 139.676 136.448 139.378Z" fill="#E84258"/>
<path d="M146.275 133.679C142.681 150.281 165.952 167.036 174.848 173.437C184.492 180.388 201.01 192.412 223.579 190.367C238.243 189.04 264.97 180.929 269.701 159.963C274.431 138.996 253.625 119.762 239.655 112.094C218.605 100.55 197.157 106.311 184.576 109.63C172.178 112.888 149.487 118.862 146.275 133.679Z" fill="#E84258"/>
<path d="M136.745 127.644C151.692 135.731 174.26 118.046 182.89 111.293C192.106 104.076 208.282 91.54 212.73 69.2002C215.514 55.2302 215.743 27.2826 197.203 16.6239C178.526 5.8889 153.813 20.1718 142.048 31.9444C125.118 48.8976 124.652 71.0847 124.332 84.162C124.004 96.9494 123.416 120.441 136.745 127.644Z" fill="#E84258"/>
<path d="M130.108 132.809C133.716 116.207 110.461 99.4366 101.565 93.0276C93.6757 87.3359 76.6537 75.0673 52.8491 76.0592C35.8577 76.7611 5.01095 84.6502 0.532314 105.731C-3.94632 126.812 20.8961 146.68 36.7201 154.317C59.4872 165.304 81.4452 159.543 91.7911 156.827C104.197 153.6 126.888 147.649 130.108 132.809Z" fill="#F18D9A"/>
<path d="M134.83 138.272C121.967 127.171 96.1323 139.599 86.2594 144.376C77.4853 148.595 58.5865 157.689 48.1109 179.083C40.6186 194.342 32.8515 225.212 49.1943 239.22C65.5371 253.229 94.8888 240.884 109.156 230.637C129.68 215.881 135.097 193.831 137.661 183.447C140.682 170.957 146.305 148.175 134.83 138.272Z" fill="#F18D9A"/>
<path d="M138.058 137.494C124.813 148.137 132.366 175.795 135.258 186.369C137.821 195.754 143.345 215.996 162.488 230.187C176.153 240.319 205.1 253.572 221.84 239.999C238.579 226.425 231.758 195.357 224.22 179.472C213.424 156.583 192.717 147.29 182.959 142.895C171.27 137.631 149.838 128.002 138.058 137.494Z" fill="#F18D9A"/>
<path d="M139.599 133.518C146.809 148.9 175.458 148.099 186.43 147.794C196.158 147.526 217.124 146.939 235.436 131.695C248.505 120.815 268.243 95.8352 258.989 76.349C249.734 56.8627 217.941 56.176 200.736 59.7162C175.977 64.8052 162.022 82.7274 155.453 91.1659C147.549 101.275 133.159 119.793 139.599 133.518Z" fill="#F18D9A"/>
<path d="M137.478 129.284C154.019 125.393 159.131 97.178 161.092 86.3972C162.824 76.8143 166.562 56.1759 155.415 35.1103C147.457 20.0798 127.056 -4.35806 106.097 0.669916C85.138 5.69789 77.9203 36.6821 77.8669 54.2457C77.7524 79.5305 92.4168 96.8728 99.3217 105.044C107.577 114.833 122.729 132.755 137.478 129.284Z" fill="#F18D9A"/>
<path d="M137.989 142.026C144.786 142.026 150.296 136.516 150.296 129.719C150.296 122.922 144.786 117.412 137.989 117.412C131.192 117.412 125.682 122.922 125.682 129.719C125.682 136.516 131.192 142.026 137.989 142.026Z" fill="#EE721C"/>
</svg>
