<?xml version="1.0" encoding="utf-8"?>
<!-- Generator: Adobe Illustrator 26.0.1, SVG Export Plug-In . SVG Version: 6.00 Build 0)  -->
<svg version="1.1" id="Слой_1" xmlns="http://www.w3.org/2000/svg" xmlns:xlink="http://www.w3.org/1999/xlink" x="0px" y="0px"
	 viewBox="0 0 555.6 604" style="enable-background:new 0 0 555.6 604;" xml:space="preserve">
<style type="text/css">
	.st0{fill:#EE721C;}
	.st1{fill:#43A235;}
	.st2{fill:#F39346;}
	.st3{fill:#E84258;}
	.st4{fill:#F18D9A;}
</style>
<path class="st3" d="M81.3-0.1L0,0v190c34.6,11.2,83.8,22.9,109.6-1.9c33.9-32.8,6.1-107.3-4.5-135.8C99.8,38.3,92.8,19.3,81.3-0.1z
	"/>
<path class="st3" d="M112.4,247.9C101,206.8,35.5,193.7,0.8,188.4v206.3c20.3-12.7,36.4-27.4,48.4-38.4
	C75.5,332.4,123.6,288.4,112.4,247.9z"/>
<path class="st3" d="M150.6,233.7c-47.1-0.9-80.2,71.5-92.9,99.1c-13.7,29.9-37.5,81.4-19.9,141.8C50.2,517,89.5,586.1,149.5,585.8
	c59.9-0.3,97.9-69.6,110.1-109.3c19.7-64.4-7.6-119.8-22.9-151.3C221.1,293.1,192.7,234.6,150.6,233.7z"/>
<path class="st3" d="M177.9,217.9c-10,46.1,54.6,92.6,79.3,110.3c26.8,19.3,72.6,52.7,135.2,47c40.7-3.7,114.9-26.2,128-84.4
	c13.1-58.2-44.6-111.5-83.4-132.8c-58.4-32-117.9-16-152.8-6.8C249.8,160.2,186.8,176.8,177.9,217.9z"/>
<path class="st3" d="M127.7-0.1c-9.5,30.2-10.2,59.6-10.7,80.6c-0.9,35.5-2.5,100.7,34.4,120.7c41.5,22.4,104.1-26.6,128-45.4
	c25.6-20,70.5-54.8,82.8-116.8c2.1-10.7,3.7-24.3,3.8-39.1H127.7z"/>
<path class="st4" d="M53.8,105.1C42.6,97,23.8,84.1,0,73.8v214.5c10.2-2,19.8-4.3,26.7-6.1c34.4-9,97.4-25.5,106.3-66.6
	C143,169.4,78.5,122.9,53.8,105.1z"/>
<path class="st4" d="M146.1,230.7c-35.7-30.8-107.4,3.7-134.8,16.9c-3.1,1.5-7.5,3.6-11.4,5.5v269.4c28.5-7.8,56.6-22.4,74.9-35.5
	c56.9-40.9,72-102.1,79.1-130.9C162.4,321.4,178,258.2,146.1,230.7z"/>
<path class="st4" d="M155.1,228.5c-36.8,29.5-15.8,106.3-7.8,135.6c7.1,26,22.4,82.2,75.6,121.6c37.9,28.1,118.2,64.9,164.7,27.2
	c46.4-37.7,27.5-123.9,6.6-167.9c-30-63.5-87.4-89.3-114.5-101.5C247.2,228.9,187.8,202.2,155.1,228.5z"/>
<path class="st4" d="M159.4,217.5c20,42.7,99.5,40.5,129.9,39.6c27-0.7,85.2-2.4,136-44.7c36.3-30.2,91-99.5,65.4-153.6
	C465,4.8,376.7,2.9,329,12.7C260.3,26.8,221.6,76.5,203.3,100C181.4,128,141.5,179.4,159.4,217.5z"/>
<path class="st4" d="M0,0v64.7C13.5,99,35.4,124,47.6,138.5c22.9,27.2,65,76.9,105.9,67.3c45.9-10.8,60.1-89.1,65.5-119
	c3.2-18,9-49.9,2.9-86.8L0,0z"/>
<path class="st0" d="M154.9,241.1c18.9,0,34.1-15.3,34.1-34.1c0-18.9-15.3-34.1-34.1-34.1c-18.9,0-34.1,15.3-34.1,34.1
	C120.7,225.8,136,241.1,154.9,241.1z"/>
</svg>
