<svg width="336" height="777" viewBox="0 0 336 777" fill="none" xmlns="http://www.w3.org/2000/svg">
<path d="M241.767 737.581C170.143 770.045 112.56 743.675 110.688 742.182L108.192 740.195C103.103 733.852 98.6614 727.017 94.9332 719.79C84.5121 699.585 88.9908 694.203 81.5763 682.154C69.9913 663.33 54.5891 669.248 38.0743 647.079C32.4603 639.43 28.2725 630.831 25.7122 621.695C19.8903 602.3 22.4349 586.157 23.7919 578.181C26.9941 559.25 34.5424 546.201 40.3185 536.396C44.8444 528.758 52.7021 515.682 66.7485 503.438C88.019 484.91 118.834 472.427 124.337 479.363C128.241 484.285 115.591 492.589 108.071 518.016C103.201 534.343 104.09 550.758 105.797 583.597C106.473 596.808 107.676 608.62 110.906 609.019C112.354 609.21 113.815 607.059 115.563 604.419C118.349 600.059 119.97 595.057 120.273 589.891C120.933 582.069 121.298 578.164 119.653 570.113C117.039 557.133 115.512 529.157 124.406 505.978C126.748 499.869 134.365 480.823 153.843 468.692C162.406 463.433 172.05 460.183 182.049 459.186C194.438 457.991 209.764 460.15 210.449 464.614C211.062 468.557 199.64 470.153 187.584 483.789C184.224 487.679 181.263 491.898 178.746 496.38C173.398 505.582 169.273 515.442 166.477 525.711C162.057 541.314 163.113 547.67 164.131 551.328C164.333 552.033 166.542 559.756 169.05 559.634C171.098 559.534 172.093 554.337 175.36 542.269C175.36 542.269 177.3 535.085 180.131 525.579C183.394 514.586 186.207 505.128 192.082 496.385C193.916 493.659 200.345 483.897 212.072 477.807C236.315 465.124 265.994 473.992 269.119 475.105C278.612 478.36 286.902 483.101 298.397 480.797C305.486 479.371 310.943 475.367 312.259 476.966C313.574 478.565 308.378 483.112 305.177 489.549C299.952 500.039 302.705 509.591 303.621 519.089C303.872 521.67 306.96 558.241 287.251 576.777C276.515 586.856 259.174 591.432 256.417 592.17C254.992 592.541 249.163 594.014 241.621 595.534C237.089 596.441 223.013 597.473 217.593 597.768C206.223 598.419 205.625 599.523 205.541 599.945C205.274 601.482 209.886 603.502 211.461 604.192C219.724 607.802 227.376 607.926 233.492 607.782C245.59 607.491 251.633 607.355 259.751 605.326C268.337 603.176 279.5 600.388 289.031 591.693C301.445 580.373 302.469 566.96 306.432 567.517C310.395 568.075 312.501 581.992 312.023 593.257C311.727 600.209 310.635 625.8 289.755 642.55C282.797 648.069 274.676 651.935 266.006 653.856C257.331 655.156 248.581 655.892 239.81 656.059C230.826 656.173 221.843 655.752 212.908 654.799C190.01 652.693 182.316 649.782 165.457 651C160.718 651.343 148.781 652.22 148.541 654.888C148.216 658.273 167.009 663.085 176.041 665.022C183.595 666.64 190.788 668.176 199.441 669.255C202.602 669.643 207.745 670.182 214.6 670.512C233.827 671.431 247.749 672.097 261.475 668.699C285.631 662.752 293.998 647.855 300.253 652.1C307.162 656.733 300.729 677.254 299.582 680.932C297.922 686.215 293.704 697.215 281.274 710.319C269.815 722.566 256.809 730.758 241.767 737.581Z" fill="#50BCBD"/>
<path d="M241.767 38.5939C170.143 6.12973 112.56 32.4995 110.688 33.9924L108.192 35.9799C103.103 42.3223 98.6614 49.1579 94.9332 56.3845C84.5121 76.5896 88.9908 81.9717 81.5763 94.0208C69.9913 112.845 54.5891 106.927 38.0743 129.096C32.4603 136.745 28.2725 145.344 25.7122 154.48C19.8903 173.875 22.4349 190.018 23.7919 197.993C26.9941 216.925 34.5424 229.974 40.3185 239.779C44.8444 247.416 52.7021 260.493 66.7485 272.737C88.019 291.265 118.834 303.748 124.337 296.812C128.241 291.89 115.591 283.586 108.071 258.159C103.201 241.832 104.09 225.416 105.797 192.578C106.473 179.367 107.676 167.555 110.906 167.156C112.354 166.965 113.815 169.116 115.563 171.756C118.349 176.116 119.97 181.118 120.273 186.283C120.933 194.106 121.298 198.011 119.653 206.062C117.039 219.042 115.512 247.018 124.406 270.197C126.748 276.306 134.365 295.352 153.843 307.483C162.406 312.742 172.05 315.992 182.049 316.989C194.438 318.183 209.764 316.025 210.449 311.561C211.062 307.618 199.64 306.022 187.584 292.386C184.224 288.495 181.263 284.277 178.746 279.795C173.398 270.593 169.273 260.733 166.477 250.464C162.057 234.86 163.113 228.505 164.131 224.847C164.333 224.142 166.542 216.419 169.05 216.541C171.098 216.641 172.093 221.838 175.36 233.906C175.36 233.906 177.3 241.09 180.131 250.596C183.394 261.589 186.207 271.047 192.082 279.789C193.916 282.515 200.345 292.278 212.072 298.368C236.315 311.051 265.994 302.182 269.119 301.07C278.612 297.815 286.902 293.074 298.397 295.377C305.486 296.803 310.943 300.808 312.259 299.209C313.574 297.61 308.378 293.063 305.177 286.626C299.952 276.136 302.705 266.583 303.621 257.086C303.872 254.505 306.96 217.934 287.251 199.398C276.515 189.319 259.174 184.743 256.417 184.005C254.992 183.633 249.163 182.161 241.621 180.641C237.089 179.734 223.013 178.702 217.593 178.406C206.223 177.756 205.625 176.652 205.541 176.23C205.274 174.693 209.886 172.673 211.461 171.982C219.724 168.373 227.376 168.249 233.492 168.393C245.59 168.684 251.633 168.82 259.751 170.849C268.337 172.999 279.5 175.787 289.031 184.482C301.445 195.802 302.469 209.215 306.432 208.657C310.395 208.1 312.501 194.183 312.023 182.918C311.727 175.966 310.635 150.374 289.755 133.625C282.797 128.106 274.676 124.24 266.006 122.319C257.331 121.018 248.581 120.283 239.81 120.116C230.826 120.002 221.843 120.423 212.908 121.376C190.01 123.481 182.316 126.393 165.457 125.175C160.718 124.832 148.781 123.955 148.541 121.287C148.216 117.902 167.009 113.09 176.041 111.153C183.595 109.534 190.788 107.999 199.441 106.92C202.602 106.532 207.745 105.992 214.6 105.663C233.827 104.744 247.749 104.078 261.475 107.476C285.631 113.423 293.998 128.32 300.253 124.075C307.162 119.442 300.729 98.9208 299.582 95.243C297.922 89.9594 293.704 78.9597 281.274 65.8562C269.815 53.609 256.809 45.4167 241.767 38.5939Z" fill="#F39346"/>
</svg>
