<?xml version="1.0" encoding="utf-8"?>
<!-- Generator: Adobe Illustrator 26.0.1, SVG Export Plug-In . SVG Version: 6.00 Build 0)  -->
<svg version="1.1" id="Слой_1" xmlns="http://www.w3.org/2000/svg" xmlns:xlink="http://www.w3.org/1999/xlink" x="0px" y="0px"
	 viewBox="0 0 208.3 493" style="enable-background:new 0 0 208.3 493;" xml:space="preserve">
<style type="text/css">
	.st0{fill:#FDE3CD;}
	.st1{fill:#50BCBD;}
	.st2{fill:#E84258;}
	.st3{fill:#F18D9A;}
	.st4{fill:#EE721C;}
	.st5{fill:#43A235;}
</style>
<path class="st5" d="M16.5,242.2c-7-9.3-11-20.1-16.4-34.9v66c9.3,2.3,15.9,2,19.4,1.7c3.2-0.3,20.8-2,22.1-8.8
	C42.8,260.2,28.8,258.6,16.5,242.2z"/>
<path class="st5" d="M170.9,209.8c-5.4-8-4.5-15.8-5.1-24c-0.2-2.7-3-28.1-20.4-42.4c-8.4-6.9-17.9-8.7-20.5-9.2
	c-8.5-1.6-16.6-0.7-26,0.3c-8.1,0.9-14.2,1.8-14.2,1.8c-10.2,1.4-14.5,2.3-15.2,0.8c-0.9-1.9,4.2-6,4.7-6.4
	c2.4-1.9,6.9-4.8,20.2-6.5c8.7-1.2,17.5-1.2,26.2-0.1c4.2,0.5,8.4,1.4,12.4,2.6c14.2,4.8,19.1,12.9,21.9,11.2c3.2-2-0.1-14.3-5-23.3
	c-4-7.3-9.5-13.5-16.3-18.3C118.1,85.4,101.2,85.8,95.8,86c-20.4,0.7-41.2,10.9-50.2,17c-5.6,3.8-8.7,4.8-14.8,6.8
	c-4,1.4-8.3,1.8-12.5,1.1c-2.6-0.5-4.7-0.9-5-2.1c-0.7-2.6,7.8-7.3,17.6-12C55.3,85,67.5,79,81.4,77.5c21.7-2.5,32.1,4.4,34.5-0.1
	c3.5-6.4-15.9-25.7-36.8-35.9C65.4,34.7,53,33,45.7,32c-9.3-1.2-21.6-2.7-37,0.9c-2.2,0.5-5.2,1.2-8.6,2.4v130.5
	c5.4,11.1,5.9,18.1,11.4,35.1c2.2,7.1,4.7,14,7.7,20.8c2.9,6.6,6.3,13,10.1,19.1c4.2,6,9.8,10.9,16.2,14.4c19.4,10.4,39.2,3,44.5,1
	c8.7-3.3,18.6-9.3,17.7-12.5s-11.4,0.4-23.9-5.4c-9.7-4.4-15.4-12-19.8-17.8c-4.1-5.5-6.2-10-10.3-19.1c-2.1-4.6-4.4-10.4-4.4-17.9
	c0-1.4,0.1-5.6,1.3-5.9c0.3-0.1,1.4,0,5.5,8.4c2,4,7.3,14.4,9.4,17.5c3.6,5.2,6.6,9.2,7.3,10.1c1.4,1.9,10.5,13.5,21.6,18.4
	c20.4,9,47.1-5.1,49-6.1c6.9-3.7,13.3-8.9,22.9-8.3c5.9,0.4,11,2.8,11.8,1.3C179,217.5,174.2,214.7,170.9,209.8z"/>
<path class="st2" d="M120.7,429.5c7.2-7,1.3-22.8-1-28.8c-2.4-6.4-6.6-17.8-18.3-24.3c-7.7-4.2-23.6-9.2-32.8-0.5
	s-5.1,25.2-0.7,33.5c6.6,12.6,19,16.8,26.2,19.3C101.2,431.1,114.3,435.7,120.7,429.5z"/>
<path class="st2" d="M121.3,442.2c-2.7-9.7-19.4-12-25.8-12.9c-6.9-1-18.9-2.7-30.1,4.5c-7.6,4.9-19.3,16.9-15.8,29.1
	c3.6,12.2,19.9,16,28.8,16.1c14.2,0.2,23.9-8.7,29.4-13.8C113.5,460.1,123.7,450.8,121.3,442.2z"/>
<path class="st2" d="M151.8,493c0.3-0.8,0.6-1.5,0.8-2.3c4.2-13.7-1.6-25.5-4.9-32.1c-3.3-6.8-9.4-19.2-18.3-19.4
	c-10-0.2-17,15.2-19.7,21.1c-2.9,6.3-8,17.3-4.2,30.1c0.2,0.8,0.6,1.7,0.9,2.7L151.8,493z"/>
<path class="st2" d="M135.2,435.8c-2.1,9.8,11.6,19.7,16.8,23.4c5.7,4.1,15.4,11.2,28.7,10c8.6-0.8,24.4-5.6,27.2-17.9
	c2.8-12.4-9.5-23.7-17.7-28.2c-12.4-6.8-25.1-3.4-32.5-1.5C150.5,423.5,137.1,427.1,135.2,435.8z"/>
<path class="st2" d="M129.6,432.2c8.8,4.8,22.1-5.7,27.2-9.6c5.4-4.3,15-11.6,17.6-24.8c1.6-8.2,1.8-24.7-9.2-31s-25.6,2.1-32.5,9
	c-10,10-10.3,23.1-10.4,30.8C122.1,414.1,121.8,428,129.6,432.2z"/>
<path class="st3" d="M125.7,435.3c2.1-9.8-11.6-19.7-16.8-23.5c-4.7-3.4-14.7-10.6-28.7-10c-10,0.4-28.2,5.1-30.8,17.5
	s12,24.1,21.3,28.6c13.4,6.5,26.4,3.1,32.5,1.5C110.4,447.5,123.8,444,125.7,435.3z"/>
<path class="st3" d="M128.5,438.5c-7.6-6.5-22.8,0.8-28.6,3.6c-5.2,2.5-16.3,7.8-22.5,20.5c-3.7,7.5-7.4,21.2-3.1,30.4h39
	c0,0,0,0,0.1,0c12.1-8.7,15.3-21.7,16.8-27.8C131.9,457.8,135.2,444.3,128.5,438.5z"/>
<path class="st3" d="M144.8,492.7c0.2,0.1,0.3,0.2,0.5,0.3h38.6c4.2-9.1,0.9-22.6-2.7-30.2c-6.4-13.5-18.6-19-24.3-21.6
	c-6.9-3.1-19.5-8.8-26.5-3.2c-7.8,6.3-3.4,22.6-1.7,28.8C130.2,472.4,133.5,484.3,144.8,492.7z"/>
<path class="st3" d="M131.3,435.7c4.2,9.1,21.1,8.6,27.6,8.4c5.7-0.2,18.1-0.5,28.9-9.5c7.7-6.4,19.3-21.1,13.9-32.6
	c-5.5-11.5-24.2-11.9-34.3-9.8c-14.6,3-22.8,13.6-26.7,18.5C136,416.7,127.5,427.6,131.3,435.7z"/>
<path class="st3" d="M130,433.2c9.8-2.3,12.8-18.9,13.9-25.3c1-5.6,3.2-17.8-3.3-30.2c-4.7-8.9-16.7-23.3-29.1-20.3
	S94.9,378.6,94.9,389c-0.1,14.9,8.6,25.1,12.6,29.9C112.4,424.7,121.3,435.3,130,433.2z"/>
<path class="st4" d="M130.3,440.7c4,0,7.3-3.2,7.3-7.3c0-4-3.2-7.3-7.3-7.3c-4,0-7.3,3.2-7.3,7.3
	C123.1,437.5,126.3,440.7,130.3,440.7z"/>
</svg>
