<svg width="336" height="777" viewBox="0 0 336 777" fill="none" xmlns="http://www.w3.org/2000/svg">
<path d="M93.579 38.5939C165.203 6.12973 222.786 32.4995 224.657 33.9924L227.154 35.9799C232.243 42.3223 236.684 49.1579 240.413 56.3845C250.834 76.5896 246.355 81.9717 253.769 94.0208C265.354 112.845 280.757 106.927 297.271 129.096C302.885 136.745 307.073 145.344 309.633 154.48C315.455 173.875 312.911 190.018 311.554 197.993C308.352 216.925 300.803 229.974 295.027 239.779C290.501 247.416 282.644 260.493 268.597 272.737C247.327 291.265 216.511 303.748 211.009 296.812C207.104 291.89 219.755 283.586 227.274 258.159C232.145 241.832 231.255 225.416 229.548 192.578C228.873 179.367 227.67 167.555 224.44 167.156C222.992 166.965 221.531 169.116 219.783 171.756C216.997 176.116 215.376 181.118 215.073 186.283C214.413 194.106 214.048 198.011 215.692 206.062C218.306 219.042 219.834 247.018 210.939 270.197C208.598 276.306 200.98 295.352 181.503 307.483C172.939 312.742 163.296 315.992 153.296 316.989C140.908 318.183 125.582 316.025 124.896 311.561C124.283 307.618 135.706 306.022 147.761 292.386C151.121 288.495 154.082 284.277 156.6 279.795C161.948 270.593 166.072 260.733 168.869 250.464C173.289 234.86 172.233 228.505 171.215 224.847C171.012 224.142 168.803 216.419 166.295 216.541C164.248 216.641 163.252 221.838 159.986 233.906C159.986 233.906 158.045 241.09 155.214 250.596C151.952 261.589 149.139 271.047 143.264 279.789C141.429 282.515 135.001 292.278 123.274 298.368C99.0312 311.051 69.352 302.182 66.2264 301.07C56.7338 297.815 48.4437 293.074 36.9487 295.377C29.8594 296.803 24.4023 300.808 23.087 299.209C21.7716 297.61 26.9679 293.063 30.1685 286.626C35.3937 276.136 32.6403 266.583 31.7246 257.086C31.4733 254.505 28.3857 217.934 48.0944 199.398C58.8308 189.319 76.1717 184.743 78.929 184.005C80.3538 183.633 86.1825 182.161 93.7246 180.641C98.257 179.734 112.332 178.702 117.753 178.406C129.123 177.756 129.721 176.652 129.805 176.23C130.072 174.693 125.46 172.673 123.885 171.982C115.621 168.373 107.969 168.249 101.854 168.393C89.7553 168.684 83.7124 168.82 75.5946 170.849C67.0089 172.999 55.846 175.787 46.3146 184.482C33.9007 195.802 32.8765 209.215 28.9135 208.657C24.9504 208.1 22.8447 194.183 23.3225 182.918C23.6185 175.966 24.7109 150.374 45.5907 133.625C52.5484 128.106 60.6693 124.24 69.34 122.319C78.0149 121.018 86.7651 120.283 95.5353 120.116C104.52 120.002 113.503 120.423 122.437 121.376C145.335 123.481 153.03 126.393 169.888 125.175C174.627 124.832 186.564 123.955 186.805 121.287C187.13 117.902 168.337 113.09 159.305 111.153C151.751 109.534 144.558 107.999 135.904 106.92C132.744 106.532 127.6 105.992 120.746 105.663C101.519 104.744 87.5966 104.078 73.8712 107.476C49.7143 113.423 41.3473 128.32 35.0923 124.075C28.1841 119.442 34.6165 98.9208 35.7639 95.243C37.424 89.9594 41.6418 78.9597 54.0716 65.8562C65.5303 53.609 78.537 45.4167 93.579 38.5939Z" fill="#43A235"/>
<path d="M93.579 737.581C165.203 770.045 222.786 743.675 224.657 742.182L227.154 740.195C232.243 733.852 236.684 727.017 240.413 719.79C250.834 699.585 246.355 694.203 253.769 682.154C265.354 663.33 280.757 669.248 297.271 647.079C302.885 639.43 307.073 630.831 309.633 621.695C315.455 602.3 312.911 586.157 311.554 578.181C308.352 559.25 300.803 546.201 295.027 536.396C290.501 528.758 282.644 515.682 268.597 503.438C247.327 484.91 216.511 472.427 211.009 479.363C207.104 484.285 219.755 492.589 227.274 518.016C232.145 534.343 231.255 550.758 229.548 583.597C228.873 596.808 227.67 608.62 224.44 609.019C222.992 609.21 221.531 607.059 219.783 604.419C216.997 600.059 215.376 595.057 215.073 589.891C214.413 582.069 214.048 578.164 215.692 570.113C218.306 557.133 219.834 529.157 210.939 505.978C208.598 499.869 200.98 480.823 181.503 468.692C172.939 463.433 163.296 460.183 153.296 459.186C140.908 457.991 125.582 460.15 124.896 464.614C124.283 468.557 135.706 470.153 147.761 483.789C151.121 487.679 154.082 491.898 156.6 496.38C161.948 505.582 166.072 515.442 168.869 525.711C173.289 541.314 172.233 547.67 171.215 551.328C171.012 552.033 168.803 559.756 166.295 559.634C164.248 559.534 163.252 554.337 159.986 542.269C159.986 542.269 158.045 535.085 155.214 525.579C151.952 514.586 149.139 505.128 143.264 496.385C141.429 493.659 135.001 483.897 123.274 477.807C99.0312 465.124 69.352 473.992 66.2264 475.105C56.7338 478.36 48.4437 483.101 36.9487 480.797C29.8594 479.371 24.4023 475.367 23.087 476.966C21.7716 478.565 26.9679 483.112 30.1685 489.549C35.3937 500.039 32.6403 509.591 31.7246 519.089C31.4733 521.67 28.3857 558.241 48.0944 576.777C58.8308 586.856 76.1717 591.432 78.929 592.17C80.3538 592.541 86.1825 594.014 93.7246 595.534C98.257 596.441 112.332 597.473 117.753 597.768C129.123 598.419 129.721 599.523 129.805 599.945C130.072 601.482 125.46 603.502 123.885 604.192C115.621 607.802 107.969 607.926 101.854 607.782C89.7553 607.491 83.7124 607.355 75.5946 605.326C67.0089 603.176 55.846 600.388 46.3146 591.693C33.9007 580.373 32.8765 566.96 28.9135 567.517C24.9504 568.075 22.8447 581.992 23.3225 593.257C23.6185 600.209 24.7109 625.8 45.5907 642.55C52.5484 648.069 60.6693 651.935 69.34 653.856C78.0149 655.156 86.7651 655.892 95.5353 656.059C104.52 656.173 113.503 655.752 122.437 654.799C145.335 652.693 153.03 649.782 169.888 651C174.627 651.343 186.564 652.22 186.805 654.888C187.13 658.273 168.337 663.085 159.305 665.022C151.751 666.64 144.558 668.176 135.904 669.255C132.744 669.643 127.6 670.182 120.746 670.512C101.519 671.431 87.5966 672.097 73.8712 668.699C49.7143 662.752 41.3473 647.855 35.0923 652.1C28.1841 656.733 34.6165 677.254 35.7639 680.932C37.424 686.215 41.6418 697.215 54.0716 710.319C65.5303 722.566 78.537 730.758 93.579 737.581Z" fill="#EE721C"/>
</svg>
