<svg width="69" height="69" viewBox="0 0 69 69" fill="none" xmlns="http://www.w3.org/2000/svg">
<path d="M34.5 5.75C26.875 5.75 19.5624 8.77901 14.1707 14.1707C8.77901 19.5624 5.75 26.875 5.75 34.5C5.75 42.125 8.77901 49.4376 14.1707 54.8293C19.5624 60.221 26.875 63.25 34.5 63.25C42.125 63.25 49.4376 60.221 54.8293 54.8293C60.221 49.4376 63.25 42.125 63.25 34.5C63.25 26.875 60.221 19.5624 54.8293 14.1707C49.4376 8.77901 42.125 5.75 34.5 5.75Z" fill="#29B6F6"/>
<path d="M48.8031 21.5625L43.4183 49.0561C43.4183 49.0561 43.1868 50.3125 41.6286 50.3125C40.8006 50.3125 40.3736 49.9186 40.3736 49.9186L28.7098 40.2399L23.0029 37.3635L15.6788 35.4157C15.6788 35.4157 14.375 35.0391 14.375 33.9609C14.375 33.0625 15.7162 32.6341 15.7162 32.6341L46.3579 20.4614C46.3579 20.4614 47.2938 20.1236 47.9766 20.125C48.3963 20.125 48.875 20.3047 48.875 20.8438C48.875 21.2031 48.8031 21.5625 48.8031 21.5625Z" fill="white"/>
<path d="M33.0624 43.8509L28.1376 48.7011C28.1376 48.7011 27.9234 48.8664 27.6373 48.8736C27.5381 48.8764 27.4318 48.8606 27.3225 48.8118L28.7083 40.2371L33.0624 43.8509Z" fill="#B0BEC5"/>
<path d="M42.9769 26.1568C42.734 25.8406 42.2855 25.7831 41.9692 26.0232L23 37.3751C23 37.3751 26.0274 45.8448 26.4888 47.3111C26.9517 48.7788 27.3226 48.8133 27.3226 48.8133L28.7083 40.2386L42.8418 27.1631C43.1581 26.923 43.217 26.4731 42.9769 26.1568Z" fill="#CFD8DC"/>
</svg>
