<svg width="78" height="76" viewBox="0 0 78 76" fill="none" xmlns="http://www.w3.org/2000/svg">
<path d="M68.25 58.5833C68.25 62.9565 64.6133 66.5 60.125 66.5H17.875C13.3884 66.5 9.75 62.9565 9.75 58.5833V17.4167C9.75 13.0435 13.3884 9.5 17.875 9.5H60.125C64.6133 9.5 68.25 13.0435 68.25 17.4167V58.5833Z" fill="#1976D2"/>
<path d="M58.3976 28.565C58.4724 28.3259 58.5081 28.1042 58.4984 27.9063C58.474 27.3332 58.0694 26.9167 57.1171 26.9167H52.8629C51.7887 26.9167 51.2931 27.5501 51.0039 28.185C51.0039 28.185 48.3519 33.5034 45.2952 37.0105C44.304 38.0254 43.8002 38.0001 43.264 38.0001C42.9764 38.0001 42.25 37.6612 42.25 36.7318V28.5222C42.25 27.4234 41.9689 26.9167 41.0605 26.9167H33.5059C32.8445 26.9167 32.5 27.4234 32.5 27.9317C32.5 28.9877 33.9592 29.2411 34.125 32.2003V37.9367C34.125 39.3301 33.8764 39.5834 33.3401 39.5834C31.8939 39.5834 29.0469 34.8334 27.1407 28.6077C26.728 27.3822 26.3152 26.9167 25.2411 26.9167H20.9463C19.7064 26.9167 19.5 27.5089 19.5 28.1422C19.5 29.2838 20.475 35.4557 25.7969 42.5522C29.6562 47.698 34.7409 50.6667 39.2421 50.6667C41.9689 50.6667 42.2484 49.9907 42.2484 48.9346V44.2289C42.25 42.9607 42.5474 42.7501 43.4151 42.7501C44.0342 42.7501 45.2969 43.1459 47.7344 45.9167C50.5456 49.1119 51.0559 50.6667 52.6679 50.6667H56.9221C57.9101 50.6667 58.4772 50.263 58.5 49.4792C58.5049 49.2797 58.4756 49.0565 58.409 48.8079C58.0937 47.8959 56.6475 45.6666 54.8437 43.5417C53.8444 42.3653 52.858 41.2 52.4046 40.5667C52.1007 40.1534 51.9854 39.8621 52 39.5834C52.0146 39.2905 52.1706 39.0118 52.4046 38.6223C52.3624 38.6223 57.8614 31.0999 58.3976 28.565Z" fill="white"/>
</svg>
