<svg width="58" height="58" viewBox="0 0 58 58" fill="none" xmlns="http://www.w3.org/2000/svg">
<path d="M0 58L4.988 43.037C2.457 38.78 1 33.812 1 28.5C1 12.76 13.76 0 29.5 0C45.24 0 58 12.76 58 28.5C58 44.24 45.24 57 29.5 57C24.711 57 20.201 55.813 16.24 53.727L0 58Z" fill="#2CB742"/>
<path d="M47.683 37.985C46.367 35.498 41.514 32.654 41.514 32.654C40.416 32.028 39.091 31.958 38.465 33.074C38.465 33.074 36.888 34.965 36.487 35.237C34.655 36.478 32.958 36.43 31.245 34.717L27.264 30.736L23.283 26.755C21.57 25.042 21.522 23.345 22.763 21.513C23.035 21.112 24.926 19.535 24.926 19.535C26.042 18.908 25.972 17.584 25.346 16.486C25.346 16.486 22.502 11.633 20.015 10.317C18.957 9.75696 17.658 9.95296 16.812 10.799L15.054 12.557C9.47697 18.134 12.223 24.43 17.8 30.007L22.897 35.104L27.994 40.201C33.571 45.778 39.867 48.524 45.444 42.947L47.202 41.189C48.048 40.341 48.243 39.042 47.683 37.985Z" fill="white"/>
</svg>
